<?xml version="1.0" encoding="utf-8"?>
<!-- Generator: Adobe Illustrator 24.0.0, SVG Export Plug-In . SVG Version: 6.00 Build 0)  -->
<svg version="1.1" id="Layer_1" xmlns="http://www.w3.org/2000/svg" xmlns:xlink="http://www.w3.org/1999/xlink" x="0px" y="0px"
	 viewBox="0 0 2024 2024" style="enable-background:new 0 0 2024 2024;" xml:space="preserve">
<style type="text/css">
	.st0{display:none;fill:none;stroke:#000000;stroke-width:6;stroke-miterlimit:10;}
</style>
<line class="st0" x1="1029" y1="733.5" x2="1029" y2="402.5"/>
<path d="M405.22,1308.22h21.39l-37.72-101.93l0.11-0.3h-0.23h-21.17h-0.23l0.11,0.3l-37.72,101.93h21.39l9.02-24.39h36
	L405.22,1308.22z M364.95,1271l13.25-35.8l13.25,35.8H364.95z"/>
<polygon points="503.07,1262.89 523.89,1262.89 545.96,1308.22 525.14,1308.22 "/>
<path d="M983.26,1202.16c-27.96,0-50.63,23.74-50.63,53.03s22.67,53.03,50.63,53.03s50.63-23.74,50.63-53.03
	S1011.22,1202.16,983.26,1202.16z M983.26,1291.33c-19.06,0-34.5-16.18-34.5-36.14s15.45-36.14,34.5-36.14
	c19.06,0,34.5,16.18,34.5,36.14S1002.31,1291.33,983.26,1291.33z"/>
<path d="M667.18,1275.46c-6.02,9.58-16.18,15.87-27.7,15.87c-18.48,0-33.45-16.18-33.45-36.14s14.98-36.14,33.45-36.14
	c12.89,0,24.07,7.88,29.65,19.42h16.93c-6.49-21.09-24.88-36.3-46.58-36.3c-27.11,0-49.09,23.74-49.09,53.03
	s21.98,53.03,49.09,53.03c20.46,0,37.99-13.53,45.36-32.76H667.18z"/>
<path d="M870.17,1275.46c-6.02,9.58-16.18,15.87-27.7,15.87c-18.48,0-33.45-16.18-33.45-36.14s14.98-36.14,33.45-36.14
	c12.89,0,24.07,7.88,29.65,19.42h16.93c-6.49-21.09-24.88-36.3-46.58-36.3c-27.11,0-49.09,23.74-49.09,53.03
	s21.98,53.03,49.09,53.03c20.46,0,37.99-13.53,45.36-32.76H870.17z"/>
<polygon points="1172.96,1206.46 1136,1275.87 1099.04,1206.46 1083.5,1206.46 1083.5,1308.22 1099.04,1308.22 1099.04,1235.64 
	1128.23,1290.46 1143.77,1290.46 1172.96,1235.64 1172.96,1308.22 1188.5,1308.22 1188.5,1206.46 "/>
<polygon points="1565.88,1206.46 1487.38,1206.46 1487.38,1220.96 1517.25,1220.96 1517.25,1308.22 1536,1308.22 1536,1220.96 
	1565.88,1220.96 "/>
<polygon points="1677.5,1220.96 1677.5,1206.46 1611.25,1206.46 1611.25,1216.96 1611.25,1220.96 1611.25,1249.09 1611.25,1263.59 
	1611.25,1293.72 1611.25,1308.22 1630,1308.22 1677.5,1308.22 1677.5,1293.72 1630,1293.72 1630,1263.59 1673,1263.59 1673,1249.09 
	1630,1249.09 1630,1220.96 "/>
<path d="M1283.31,1206.47h-22.81v-0.01h-18.75v101.76h18.75v-40.07h22.81c19.94,0,33.38-11.6,33.38-31.81
	C1316.69,1226.95,1310.18,1206.47,1283.31,1206.47z M1282.31,1254.15h-21.81v-33.68l21.91,0c6.28-0.07,17.28,2.68,17.28,15.87
	C1299.69,1248.66,1294.33,1254.15,1282.31,1254.15z"/>
<path d="M512.08,1206.47h-22.81v-0.01h-18.75v101.76h18.75v-40.07h22.81c19.94,0,33.38-11.6,33.38-31.81
	C545.46,1226.95,538.96,1206.47,512.08,1206.47z M511.08,1254.15h-21.81v-33.68l21.91,0c6.28-0.07,17.28,2.68,17.28,15.87
	C528.46,1248.66,523.1,1254.15,511.08,1254.15z"/>
<path d="M1401.55,1309.22c-24.6,0-38.15-13.75-38.15-38.72v-67h15v67c0,16.85,6.71,23.72,23.15,23.72
	c16.44,0,23.15-6.87,23.15-23.72v-67h15v67C1439.7,1302.5,1418.96,1309.22,1401.55,1309.22z"/>
<path d="M1103.81,576.69L1002.63,419.4l-0.17-0.46l-0.17,0.46L901.12,576.69H661.06l341.4,548.68l338.55-544.09l2.85-4.58H1103.81z
	 M1187.5,717.88l-104.79-79.25l-70.71-193.56L1187.5,717.88z M808.01,732.53l110.41-83.5L842.48,856.9l-56.29-90.46L808.01,732.53z
	 M1005.46,444.64l71.19,194.89l-71.19,44.72V444.64z M999.46,684.26l-71.19-44.72l71.19-194.89V684.26z M880.04,771.56l46.28,92.57
	l-18.46,97.85l-61.36-98.61L880.04,771.56z M929.85,857.76l-46.98-93.95l43.29-118.5l73.3,46.05v63.42L929.85,857.76z
	 M1005.46,691.35l73.3-46.05l43.29,118.51l-46.98,93.95l-69.61-102.99V691.35z M1124.88,771.56l33.54,91.81l-61.36,98.61
	l-18.46-97.85L1124.88,771.56z M1086.51,649.02l110.41,83.5l21.81,33.91l-56.29,90.46L1086.51,649.02z M922.22,638.63l-104.79,79.25
	l175.49-272.81L922.22,638.63z M897.26,582.69L782.69,760.8L671.86,582.69H897.26z M912.55,969.51l19.75-104.65l70.17-103.81
	l70.17,103.81l19.75,104.65l-89.91,144.5L912.55,969.51z M1222.24,760.79l-114.57-178.11h225.39L1222.24,760.79z"/>
</svg>
